# xmcd
#
# Track frame offsets:
#	150
#	12960
#	25765
#	39230
#	50810
#	65010
#	77510
#	90975
#	104280
#	120110
#	134695
#	151020
#	164680
#	176405
#	186035
#
# Disc length: 2631 seconds
#
# Revision: 1
# Processed by: cddbd v1.5.2PL0 Copyright (c) Steve Scherf et al.
# Submitted via: EZCDAudioConverter 7.1.0.1
#
DISCID=b20a450f
DTITLE=TEODORO and SAMPAIO - AMANDO ESCONDIDO [CD 6507 2) RGE
DYEAR=1995
DGENRE=SERTANEJO
TTITLE0=AMANDO ESCONDIDO (GUARÂNIA) (BY GILMAR SINISTRO)
TTITLE1=TUDO QUE ELA QUER EU DOU (JOVEM) (BY GILMAR SINISTRO)
TTITLE2=A SEMENTE DO AMOR (BALANÇO) (BY GILMAR SINISTRO)
TTITLE3=TE AMO DE PAIXÃO (RANCHEIRA) (BY GILMAR SINISTRO)
TTITLE4=MENTIRA (BALANÇO) (BY GILMAR SINISTRO)
TTITLE5=FOLIA DE AMOR (FOLIA) (BY GILMAR SINISTRO)
TTITLE6=DODÓI DE AMOR (VANERÃO) (BY GILMAR SINISTRO)
TTITLE7=O MACHÃO CHOROU (VANERÃO) (BY GILMAR SINISTRO)
TTITLE8=CIDADE GRANDE (MODA DE VIOLA) (BY GILMAR SINISTRO)
TTITLE9=NÃO TEM OUTRO JEITO (A DOR DA PAIXÃO) (GUARÂNIA) (BY GILMAR SINISTRO)
TTITLE10=FOGO NA CASA (VANERÃO) (BY GILMAR SINISTRO)
TTITLE11=O GRANDE MOMENTO (BALADA) (BY GILMAR SINISTRO)
TTITLE12=É POR ISSO QUE EU BEBO (XOTIS) (BY GILMAR SINISTRO)
TTITLE13=A VOLTA DA CUNHADA (LAANDO ROUPA) (BY GILMAR SINISTRO)
TTITLE14=COTOVELO MACHUCADO (OLODUM) (BY GILMAR SINISTRO)
EXTD=
EXTT0=
EXTT1=
EXTT2=
EXTT3=
EXTT4=
EXTT5=
EXTT6=
EXTT7=
EXTT8=
EXTT9=
EXTT10=
EXTT11=
EXTT12=
EXTT13=
EXTT14=
PLAYORDER=
